<?xml version="1.0" encoding="utf-8"?>
<!-- Generator: Adobe Illustrator 16.0.4, SVG Export Plug-In . SVG Version: 6.00 Build 0)  -->
<!DOCTYPE svg PUBLIC "-//W3C//DTD SVG 1.1//EN" "http://www.w3.org/Graphics/SVG/1.1/DTD/svg11.dtd">
<svg version="1.1" id="Layer_1" xmlns="http://www.w3.org/2000/svg" xmlns:xlink="http://www.w3.org/1999/xlink" x="0px" y="0px"
	 width="580.159px" height="53.669px" viewBox="0 0 580.159 53.669" enable-background="new 0 0 580.159 53.669"
	 xml:space="preserve">
<g>
	<path fill="#4CC2E4" d="M25.198,43.846c2.556,0,4.757-0.426,6.602-1.287c1.846-0.859,3.774-2.233,5.786-4.119l4.78,4.906
		C37.711,48.5,32.062,51.08,25.419,51.08c-6.646,0-12.16-2.141-16.541-6.414c-4.381-4.276-6.57-9.687-6.57-16.227
		s2.23-11.988,6.695-16.351C13.468,7.73,19.108,5.55,25.92,5.55c6.814,0,12.505,2.516,17.075,7.546l-4.719,5.156
		c-2.096-2.011-4.076-3.416-5.941-4.214c-1.865-0.796-4.056-1.195-6.57-1.195c-4.445,0-8.177,1.438-11.195,4.309
		c-3.017,2.871-4.527,6.541-4.527,11.005c0,4.465,1.497,8.196,4.496,11.193C17.534,42.35,21.089,43.846,25.198,43.846z"/>
	<path fill="#4CC2E4" d="M75.455,46.08c-3.354,3.332-7.546,5-12.577,5c-5.03,0-9.225-1.668-12.577-5
		c-3.354-3.334-5.033-7.411-5.033-12.231c0-4.821,1.679-8.899,5.033-12.231c3.353-3.334,7.547-5,12.577-5
		c5.031,0,9.223,1.666,12.577,5c3.354,3.332,5.031,7.41,5.031,12.231C80.486,38.669,78.811,42.746,75.455,46.08z M55.299,41.741
		c1.991,2.035,4.52,3.05,7.58,3.05c3.062,0,5.586-1.018,7.577-3.05c1.991-2.032,2.989-4.662,2.989-7.892
		c0-3.229-0.998-5.859-2.989-7.894c-1.991-2.032-4.516-3.047-7.577-3.047c-3.061,0-5.588,1.016-7.58,3.047
		c-1.99,2.035-2.985,4.665-2.985,7.894C52.313,37.079,53.309,39.708,55.299,41.741z"/>
	<path fill="#4CC2E4" d="M103.017,23.724c-3.48,0-6.102,1.131-7.861,3.396c-1.761,2.265-2.641,5.304-2.641,9.12v14.336h-7.042
		V17.122h7.042v6.727c1.133-2.096,2.674-3.812,4.624-5.156c1.946-1.341,4.012-2.034,6.191-2.075l0.064,7.106
		C103.27,23.724,103.145,23.724,103.017,23.724z"/>
	<path fill="#4CC2E4" d="M110.014,46.301c-3.146-3.186-4.717-7.38-4.717-12.577c0-5.2,1.615-9.35,4.842-12.452
		c3.229-3.104,7.075-4.654,11.541-4.654c4.465,0,8.061,1.886,10.785,5.66V3.916h7.043v46.661h-7.043v-5.031
		c-2.6,3.689-6.395,5.535-11.382,5.535C116.849,51.08,113.158,49.484,110.014,46.301z M112.342,34.004
		c0,3.209,1.026,5.819,3.081,7.83c2.053,2.011,4.466,3.019,7.231,3.019s5.115-1.016,7.045-3.05c1.926-2.034,2.891-4.644,2.891-7.83
		s-0.965-5.85-2.891-7.986c-1.93-2.14-4.299-3.209-7.109-3.209c-2.807,0-5.218,1.069-7.23,3.209
		C113.348,28.125,112.342,30.798,112.342,34.004z"/>
	<path fill="#4CC2E4" d="M173.681,46.08c-3.354,3.332-7.545,5-12.576,5s-9.226-1.668-12.579-5
		c-3.354-3.334-5.033-7.411-5.033-12.231c0-4.821,1.68-8.899,5.033-12.231c3.354-3.334,7.547-5,12.579-5s9.223,1.666,12.576,5
		c3.354,3.332,5.03,7.41,5.03,12.231C178.711,38.669,177.035,42.746,173.681,46.08z M153.523,41.741c1.99,2.035,4.52,3.05,7.58,3.05
		c3.06,0,5.586-1.018,7.576-3.05c1.989-2.032,2.987-4.662,2.987-7.892c0-3.229-0.998-5.859-2.987-7.894
		c-1.99-2.032-4.517-3.047-7.576-3.047c-3.061,0-5.59,1.016-7.58,3.047c-1.99,2.035-2.987,4.665-2.987,7.894
		C150.537,37.079,151.533,39.708,153.523,41.741z"/>
	<path fill="#4CC2E4" d="M193,50.576l-13.457-33.455h7.293L197.025,42.4l10.188-25.279h7.295l-13.457,33.455H193z"/>
	<path fill="#4CC2E4" d="M243.768,50.576h-6.416v-4.467c-2.766,3.314-6.477,4.971-11.13,4.971c-3.48,0-6.361-0.984-8.646-2.955
		s-3.426-4.602-3.426-7.895c0-3.291,1.215-5.752,3.646-7.387c2.431-1.635,5.722-2.454,9.871-2.454h9.121v-1.256
		c0-4.445-2.475-6.666-7.422-6.666c-3.104,0-6.33,1.131-9.686,3.396l-3.142-4.404c4.062-3.227,8.676-4.841,13.832-4.841
		c3.94,0,7.16,0.995,9.653,2.986c2.492,1.994,3.742,5.125,3.742,9.401v21.571H243.768z M236.723,38.125v-2.83h-7.922
		c-5.073,0-7.61,1.594-7.61,4.78c0,1.635,0.631,2.88,1.887,3.74c1.26,0.859,3.01,1.289,5.254,1.289c2.24,0,4.201-0.629,5.877-1.885
		C235.883,41.96,236.723,40.264,236.723,38.125z"/>
	<path fill="#1D7582" d="M270.09,49.807l-8.303-0.035l-17.48-44.034l8.301,0.036l13.38,32.886l13.659-32.77l8.302,0.036
		L270.09,49.807z"/>
	<path fill="#1D7582" d="M312.93,34.654l0.078-18.109l7.041,0.03l-0.145,33.454L312.863,50l0.027-6.1
		c-1.142,2.051-2.711,3.656-4.707,4.818c-1.996,1.168-4.148,1.746-6.453,1.736c-3.775-0.018-6.818-1.186-9.135-3.498
		c-2.316-2.316-3.468-5.651-3.447-10.016l0.088-20.5l7.045,0.03l-0.08,18.363c-0.027,6.162,2.518,9.253,7.631,9.275
		c2.432,0.012,4.555-0.787,6.361-2.393C312.002,40.113,312.916,37.758,312.93,34.654z"/>
	<path fill="#1D7582" d="M334.928,13.891l-0.012,2.768l8.805,0.038l-0.022,5.657l-8.808-0.037l-0.119,27.795l-7.043-0.029
		l0.121-27.796l-4.215-0.018l0.025-5.658l4.213,0.018l0.012-2.578c0.016-3.521,1.084-6.317,3.213-8.383
		c2.125-2.066,4.687-3.091,7.685-3.078c2.996,0.013,5.727,1.135,8.192,3.368l-2.914,4.956c-1.379-1.475-2.819-2.215-4.33-2.222
		c-1.51-0.007-2.688,0.462-3.526,1.399C335.359,11.03,334.934,12.298,334.928,13.891z"/>
	<path fill="#1D7582" d="M376.551,45.801c-3.369,3.316-7.566,4.967-12.598,4.945s-9.217-1.707-12.555-5.055
		c-3.34-3.35-5.002-7.432-4.98-12.252c0.02-4.822,1.717-8.893,5.086-12.211c3.367-3.319,7.566-4.966,12.598-4.945
		c5.031,0.022,9.215,1.706,12.556,5.054c3.342,3.346,5,7.432,4.979,12.254C381.613,38.413,379.92,42.48,376.551,45.801z
		 M356.414,41.374c1.982,2.044,4.506,3.07,7.566,3.083s5.59-0.992,7.59-3.019c2-2.022,3.01-4.648,3.022-7.877
		c0.015-3.23-0.973-5.864-2.954-7.908c-1.982-2.039-4.505-3.065-7.564-3.079c-3.061-0.014-5.592,0.991-7.592,3.014
		c-2,2.027-3.006,4.651-3.021,7.882C353.449,36.699,354.432,39.334,356.414,41.374z"/>
	<path fill="#1D7582" d="M403.207,23.578c-3.479-0.016-6.104,1.104-7.873,3.36c-1.771,2.258-2.664,5.293-2.68,9.107l-0.062,14.338
		l-7.043-0.031l0.146-33.454l7.043,0.031l-0.029,6.729c1.144-2.091,2.689-3.801,4.646-5.136c1.952-1.333,4.021-2.018,6.202-2.049
		l0.031,7.107C403.461,23.579,403.336,23.578,403.207,23.578z"/>
	<path fill="#1D7582" d="M409.127,10.342c-0.877-0.887-1.312-1.935-1.307-3.15c0.004-1.215,0.449-2.262,1.332-3.139
		c0.885-0.877,1.934-1.312,3.147-1.307s2.263,0.449,3.14,1.334c0.877,0.885,1.312,1.935,1.307,3.15
		c-0.004,1.216-0.449,2.26-1.332,3.139c-0.885,0.877-1.936,1.313-3.15,1.308C411.05,11.672,410.004,11.228,409.127,10.342z
		 M415.555,50.49l-7.041-0.029l0.146-33.455l7.041,0.03L415.555,50.49z"/>
	<path fill="#1D7582" d="M449.848,50.65l-6.414-0.025l0.021-4.465c-2.783,3.301-6.498,4.939-11.152,4.92
		c-3.479-0.016-6.356-1.012-8.635-2.992c-2.275-1.98-3.408-4.617-3.393-7.91c0.014-3.291,1.239-5.746,3.678-7.37
		c2.438-1.625,5.731-2.431,9.883-2.413l9.119,0.04l0.006-1.256c0.021-4.445-2.445-6.677-7.391-6.698
		c-3.104-0.014-6.338,1.104-9.701,3.354l-3.123-4.418c4.078-3.209,8.699-4.804,13.854-4.781c3.939,0.017,7.154,1.027,9.642,3.027
		c2.483,2.005,3.719,5.141,3.699,9.418L449.848,50.65z M442.855,38.17l0.012-2.83l-7.92-0.034c-5.074-0.021-7.617,1.562-7.631,4.747
		c-0.009,1.634,0.616,2.882,1.868,3.75c1.257,0.865,3.005,1.303,5.248,1.312c2.242,0.01,4.203-0.609,5.888-1.861
		C442.002,42.002,442.846,40.31,442.855,38.17z"/>
	<path fill="#BFBFBF" d="M470.801,12.538c-2.141,0-3.896,0.437-5.27,1.31c-1.371,0.873-2.057,2.193-2.057,3.96
		c0,1.768,0.686,3.118,2.057,4.054c1.373,0.936,4.293,1.944,8.764,3.024c4.467,1.082,7.836,2.6,10.102,4.553
		c2.266,1.955,3.398,4.834,3.398,8.638s-1.434,6.891-4.303,9.26c-2.869,2.371-6.631,3.555-11.287,3.555
		c-6.818,0-12.869-2.348-18.148-7.047l4.615-5.55c4.406,3.826,8.98,5.738,13.721,5.738c2.369,0,4.25-0.51,5.643-1.527
		c1.393-1.019,2.09-2.371,2.09-4.054s-0.654-2.993-1.965-3.929c-1.309-0.936-3.564-1.787-6.766-2.558
		c-3.203-0.768-5.635-1.475-7.297-2.119c-1.664-0.645-3.139-1.486-4.428-2.526c-2.578-1.954-3.867-4.947-3.867-8.98
		c0-4.032,1.467-7.141,4.396-9.323c2.932-2.183,6.559-3.274,10.883-3.274c2.785,0,5.551,0.458,8.295,1.372
		c2.744,0.915,5.113,2.204,7.109,3.866l-3.93,5.55c-1.289-1.164-3.035-2.12-5.238-2.869
		C475.115,12.913,472.943,12.538,470.801,12.538z"/>
	<path fill="#BFBFBF" d="M527.607,12.507c4.197,3.804,6.297,9.095,6.297,15.872s-2.037,12.14-6.111,16.088
		c-4.074,3.951-10.311,5.926-18.707,5.926h-14.469V6.801h14.967C517.4,6.801,523.406,8.703,527.607,12.507z M526.484,28.565
		c0-9.978-5.717-14.967-17.15-14.967h-7.357v29.871h8.168c5.279,0,9.324-1.256,12.131-3.772
		C525.08,37.182,526.484,33.471,526.484,28.565z"/>
	<path fill="#BFBFBF" d="M540.934,6.801h7.359v21.266l19.955-21.266h9.354l-17.523,19.083l17.773,24.509h-8.73l-14.469-19.083
		l-6.359,6.859v12.224h-7.359V6.801z"/>
</g>
</svg>
